<svg id="Sucess" xmlns="http://www.w3.org/2000/svg" width="144" height="137.718" viewBox="0 0 144 137.718">
  <g id="Grupo_119" data-name="Grupo 119">
    <path id="Caminho_190" data-name="Caminho 190" d="M131.89,57.214a5.823,5.823,0,0,0-5.823,5.823v5.851a57.214,57.214,0,0,1-57.214,57.186h-.028a57.214,57.214,0,0,1,.028-114.427h.028A56.876,56.876,0,0,1,92.144,16.6,5.823,5.823,0,0,0,96.869,5.963,68.409,68.409,0,0,0,68.882,0h-.028a68.859,68.859,0,0,0-.028,137.718h.028a68.859,68.859,0,0,0,68.859-68.831V63.036A5.823,5.823,0,0,0,131.89,57.214Z" transform="translate(0.008 0)" fill="rgb(128 156 20)"/>
    <path id="Caminho_191" data-name="Caminho 191" d="M255.818,24.269a5.823,5.823,0,0,0-8.214,0L182.374,89.5l-14.8-14.8a5.823,5.823,0,0,0-8.214,8.214l18.9,18.9a5.823,5.823,0,0,0,8.242,0l69.309-69.337A5.823,5.823,0,0,0,255.818,24.269Z" transform="translate(-113.513 -16.224)" fill="#0CDAC3"/>
  </g>
</svg>
