<svg xmlns="http://www.w3.org/2000/svg" width="182.283" height="174.516" viewBox="0 0 182.283 174.516"><defs><style>.a{fill:#00357A;}.b{fill:#0CDAC3;}</style></defs><g transform="translate(91.142 87.258)"><g transform="translate(-91.142 -87.258)"><path class="a" d="M128.6,12.242A7.705,7.705,0,0,0,130.161,23l6.216,4.616a75.71,75.71,0,0,1,15.484,105.972h0A75.718,75.718,0,0,1,30.406,43.136h.037a75.264,75.264,0,0,1,23.636-20.77A7.708,7.708,0,1,0,46.523,8.929,90.524,90.524,0,0,0,18.085,33.905h-.037A91.128,91.128,0,0,0,164.182,142.817h.037A91.12,91.12,0,0,0,145.571,15.294l-6.216-4.616A7.7,7.7,0,0,0,128.6,12.242Z" transform="translate(0.008 -4.959)"/><g transform="translate(75.378)"><path class="b" d="M219.145,298.3a15.764,15.764,0,0,0,0,31.527c8.561,0,15.745-7.184,15.373-15.373A15.373,15.373,0,0,0,219.145,298.3Z" transform="translate(-203.065 -187.241)"/><path class="b" d="M214.672.405C207.19,2.564,202.5,9.338,202.5,17.6c.372,4.988.707,10.013,1.079,15,1.079,18.983,2.159,37.557,3.2,56.541a11.54,11.54,0,0,0,11.8,11.092,11.806,11.806,0,0,0,11.8-11.464c0-3.908,0-7.482.372-11.464.707-12.172,1.452-24.343,2.159-36.478.372-7.891,1.079-15.745,1.452-23.636A19.445,19.445,0,0,0,232.911,9.3a15.782,15.782,0,0,0-18.239-8.9Z" transform="translate(-202.5 0.066)"/></g></g></g></svg>