<svg xmlns="http://www.w3.org/2000/svg" xmlns:xlink="http://www.w3.org/1999/xlink" width="800" zoomAndPan="magnify" viewBox="0 0 600 149.999998" height="200" preserveAspectRatio="xMidYMid meet" version="1.2"><defs><clipPath id="b00d738958"><path d="M 1.039062 1 L 114.773438 1 L 114.773438 28.996094 L 1.039062 28.996094 Z M 1.039062 1 "/></clipPath><clipPath id="a04748bc48"><rect x="0" width="496" y="0" height="97"/></clipPath><clipPath id="43c927fd97"><path d="M 0.679688 124 L 577.160156 124 L 577.160156 149 L 0.679688 149 Z M 0.679688 124 "/></clipPath><clipPath id="4561c3433d"><rect x="0" width="578" y="0" height="25"/></clipPath><clipPath id="77d92dbcc8"><rect x="0" width="578" y="0" height="149"/></clipPath></defs><g id="069961f310"><g transform="matrix(1,0,0,1,13,1)"><g clip-path="url(#77d92dbcc8)"><g clip-rule="nonzero" clip-path="url(#b00d738958)"><path style=" stroke:none;fill-rule:nonzero;fill:#00357a;fill-opacity:1;" d="M 113.648438 13.9375 C 113.210938 13.371094 112.730469 12.832031 112.242188 12.304688 C 111.027344 10.996094 109.625 9.878906 108.421875 8.5625 C 107.832031 7.914062 107.277344 7.230469 106.667969 6.605469 C 106.019531 5.941406 105.335938 5.316406 104.660156 4.683594 C 103.566406 3.652344 102.488281 2.59375 101.324219 1.640625 C 101.015625 1.390625 100.726562 1.09375 100.296875 1.1875 C 99.640625 1.328125 99.011719 1.855469 98.480469 2.226562 C 96.921875 3.332031 95.328125 4.347656 93.636719 5.238281 C 93.339844 5.394531 93.269531 5.867188 93.523438 6.089844 C 94.417969 6.878906 95.253906 7.730469 96.128906 8.535156 C 96.988281 9.320312 97.980469 9.957031 98.785156 10.804688 C 99.574219 11.628906 100.234375 12.566406 101.015625 13.398438 C 101.621094 14.046875 102.214844 14.710938 102.785156 15.394531 C 102.601562 15.632812 102.402344 15.863281 102.207031 16.09375 C 101.660156 16.738281 101.105469 17.386719 100.511719 17.988281 C 99.921875 18.582031 99.289062 19.140625 98.710938 19.746094 C 98.078125 20.40625 97.5 21.113281 96.902344 21.804688 C 95.984375 22.875 94.953125 23.882812 94.15625 25.054688 C 93.488281 26.03125 95.152344 26.878906 95.851562 27.199219 C 96.738281 27.609375 97.699219 27.902344 98.613281 28.25 C 99.101562 28.4375 99.59375 28.59375 100.113281 28.667969 C 100.445312 28.714844 100.777344 28.734375 101.109375 28.773438 C 101.296875 28.972656 101.625 29.054688 101.882812 28.8125 C 103.128906 27.648438 104.304688 26.410156 105.5625 25.261719 C 106.914062 24.027344 108.144531 22.675781 109.367188 21.3125 C 110.496094 20.058594 111.449219 18.652344 112.53125 17.359375 C 112.960938 16.84375 113.386719 16.328125 113.789062 15.789062 C 113.964844 15.554688 114.210938 15.269531 114.203125 14.957031 C 114.195312 14.578125 113.867188 14.21875 113.648438 13.9375 Z M 100.492188 2.253906 C 100.53125 2.222656 100.53125 2.285156 100.492188 2.253906 Z M 95.027344 25.347656 C 95.019531 25.339844 95.011719 25.332031 95.011719 25.332031 C 95.019531 25.328125 95.027344 25.335938 95.027344 25.347656 Z M 111.910156 16.417969 C 111.40625 17.019531 110.890625 17.609375 110.417969 18.238281 C 109.949219 18.867188 109.5 19.511719 108.988281 20.109375 C 107.75 21.558594 106.4375 22.992188 105.03125 24.28125 C 103.804688 25.398438 102.648438 26.585938 101.445312 27.730469 C 100.777344 27.625 100.101562 27.613281 99.441406 27.398438 C 98.644531 27.140625 97.882812 26.789062 97.089844 26.519531 C 96.414062 26.289062 95.714844 25.992188 95.179688 25.5 C 95.210938 25.445312 95.242188 25.398438 95.253906 25.382812 C 96.148438 24.203125 97.1875 23.140625 98.144531 22.015625 C 98.683594 21.382812 99.226562 20.753906 99.816406 20.167969 C 100.367188 19.621094 100.949219 19.105469 101.484375 18.542969 C 102.085938 17.914062 102.65625 17.25 103.210938 16.578125 C 103.488281 16.242188 103.816406 15.90625 103.984375 15.5 C 104.0625 15.316406 103.957031 15.113281 103.847656 14.972656 C 103.210938 14.183594 102.53125 13.433594 101.839844 12.695312 C 101.042969 11.839844 100.359375 10.882812 99.554688 10.039062 C 98.761719 9.207031 97.796875 8.582031 96.953125 7.816406 C 96.234375 7.164062 95.546875 6.480469 94.835938 5.820312 C 95.984375 5.191406 97.105469 4.519531 98.175781 3.769531 C 98.800781 3.332031 99.410156 2.863281 100.070312 2.476562 C 100.148438 2.433594 100.3125 2.347656 100.40625 2.296875 C 100.417969 2.300781 100.429688 2.308594 100.441406 2.316406 C 101.476562 3.132812 102.421875 4.0625 103.378906 4.964844 C 104.605469 6.121094 105.835938 7.257812 106.945312 8.527344 C 108.042969 9.78125 109.261719 10.878906 110.460938 12.03125 C 111.367188 12.90625 112.375 13.875 113.050781 14.949219 C 113 15.027344 112.953125 15.101562 112.945312 15.113281 C 112.621094 15.5625 112.261719 15.992188 111.910156 16.417969 Z M 113.125 14.832031 C 113.125 14.785156 113.136719 14.753906 113.175781 14.761719 C 113.171875 14.761719 113.152344 14.792969 113.125 14.832031 Z M 20.730469 12.226562 C 19.589844 10.929688 18.242188 9.808594 16.988281 8.628906 C 15.675781 7.390625 14.339844 6.191406 13.058594 4.917969 C 11.960938 3.832031 10.84375 2.753906 9.695312 1.714844 C 9.421875 1.464844 9.128906 1.121094 8.730469 1.128906 C 8.046875 1.136719 7.320312 1.566406 6.765625 1.921875 C 5.9375 2.457031 5.113281 3.011719 4.328125 3.605469 C 3.558594 4.183594 2.753906 4.773438 1.910156 5.234375 C 1.617188 5.390625 1.542969 5.855469 1.800781 6.085938 C 2.675781 6.859375 3.460938 7.730469 4.316406 8.53125 C 5.164062 9.324219 6.144531 9.972656 6.953125 10.808594 C 7.746094 11.628906 8.390625 12.574219 9.167969 13.40625 C 9.796875 14.074219 10.402344 14.761719 10.988281 15.46875 C 10.984375 15.476562 10.980469 15.484375 10.976562 15.492188 C 10.8125 15.738281 10.636719 15.980469 10.457031 16.214844 C 9.945312 16.886719 9.394531 17.550781 8.773438 18.121094 C 8.15625 18.6875 7.488281 19.1875 6.90625 19.789062 C 6.253906 20.457031 5.65625 21.179688 5.039062 21.882812 C 4.148438 22.890625 3.101562 23.910156 2.488281 25.128906 C 1.996094 26.101562 3.601562 26.75 4.253906 27.085938 C 5.113281 27.523438 5.996094 27.929688 6.949219 28.109375 C 7.789062 28.265625 8.597656 28.535156 9.425781 28.761719 C 9.5625 29.066406 9.988281 29.265625 10.308594 28.960938 C 10.917969 28.382812 11.46875 27.746094 12.03125 27.125 C 12.636719 26.460938 13.25 25.820312 13.8125 25.121094 C 14.339844 24.453125 14.855469 23.761719 15.472656 23.175781 C 16.066406 22.609375 16.746094 22.140625 17.355469 21.589844 C 18.03125 20.980469 18.613281 20.253906 19.21875 19.578125 C 19.808594 18.917969 20.398438 18.257812 20.941406 17.5625 C 21.355469 17.035156 21.757812 16.488281 22.109375 15.917969 C 22.277344 15.644531 22.527344 15.300781 22.527344 14.96875 C 22.527344 14.609375 22.253906 14.242188 22.070312 13.957031 C 21.671875 13.347656 21.210938 12.773438 20.730469 12.226562 Z M 8.558594 2.152344 C 8.5625 2.152344 8.5625 2.152344 8.5625 2.15625 C 8.5625 2.15625 8.558594 2.15625 8.558594 2.15625 C 8.5625 2.15625 8.558594 2.152344 8.558594 2.152344 Z M 8.746094 2.207031 C 8.746094 2.207031 8.746094 2.207031 8.742188 2.203125 C 8.773438 2.191406 8.765625 2.195312 8.746094 2.207031 Z M 3.386719 25.273438 C 3.386719 25.273438 3.382812 25.269531 3.382812 25.269531 C 3.296875 25.238281 3.375 25.238281 3.386719 25.273438 Z M 3.414062 25.6875 C 3.402344 25.699219 3.398438 25.703125 3.414062 25.6875 Z M 20.277344 16.664062 C 19.269531 17.988281 18.121094 19.257812 16.964844 20.460938 C 16.363281 21.085938 15.640625 21.578125 14.992188 22.148438 C 14.308594 22.746094 13.753906 23.457031 13.191406 24.164062 C 12.621094 24.886719 12 25.554688 11.378906 26.234375 C 10.90625 26.75 10.449219 27.277344 9.957031 27.78125 C 9.222656 27.589844 8.503906 27.324219 7.761719 27.164062 C 6.929688 26.984375 6.191406 26.804688 5.414062 26.445312 C 4.800781 26.160156 4.183594 25.855469 3.628906 25.46875 C 3.609375 25.453125 3.589844 25.4375 3.570312 25.425781 C 4.304688 24.226562 5.308594 23.214844 6.230469 22.164062 C 6.804688 21.507812 7.367188 20.828125 8.003906 20.230469 C 8.570312 19.699219 9.191406 19.234375 9.746094 18.695312 C 10.378906 18.078125 10.9375 17.371094 11.46875 16.667969 C 11.726562 16.320312 12.015625 15.964844 12.171875 15.558594 C 12.246094 15.367188 12.148438 15.171875 12.03125 15.03125 C 11.386719 14.226562 10.699219 13.453125 9.996094 12.703125 C 9.195312 11.847656 8.53125 10.882812 7.722656 10.042969 C 6.929688 9.222656 5.972656 8.585938 5.136719 7.8125 C 4.433594 7.164062 3.78125 6.460938 3.085938 5.800781 C 4.25 5.082031 5.324219 4.199219 6.449219 3.4375 C 7.074219 3.015625 7.703125 2.53125 8.429688 2.292969 C 8.496094 2.273438 8.578125 2.257812 8.648438 2.238281 C 8.691406 2.273438 8.738281 2.308594 8.777344 2.347656 C 11.066406 4.382812 13.152344 6.632812 15.433594 8.675781 C 16.628906 9.746094 17.816406 10.847656 18.972656 11.957031 C 19.878906 12.820312 20.835938 13.832031 21.40625 14.960938 C 21.359375 15.050781 21.3125 15.136719 21.261719 15.222656 C 20.96875 15.722656 20.628906 16.199219 20.277344 16.664062 Z M 45.316406 13.699219 C 44.808594 13.042969 44.285156 12.398438 43.738281 11.777344 C 43.1875 11.152344 42.570312 10.59375 41.984375 10.003906 C 41.261719 9.277344 40.589844 8.496094 39.882812 7.746094 C 39.1875 7.007812 38.496094 6.273438 37.871094 5.472656 C 36.671875 3.933594 35.328125 2.523438 33.90625 1.1875 C 33.683594 0.976562 33.410156 1.007812 33.21875 1.148438 C 32.398438 1.363281 31.597656 1.664062 30.78125 1.902344 C 29.914062 2.15625 29.117188 2.472656 28.332031 2.925781 C 27.648438 3.320312 26.910156 3.585938 26.203125 3.9375 C 25.792969 4.140625 25.375 4.496094 25.660156 4.992188 C 25.890625 5.398438 26.277344 5.761719 26.582031 6.109375 C 27.148438 6.75 27.703125 7.410156 28.3125 8.007812 C 28.929688 8.613281 29.613281 9.144531 30.222656 9.757812 C 30.851562 10.390625 31.355469 11.117188 31.886719 11.828125 C 32.46875 12.609375 33.140625 13.3125 33.804688 14.019531 C 34.035156 14.261719 34.265625 14.503906 34.488281 14.75 C 34.507812 14.773438 34.53125 14.796875 34.550781 14.820312 C 34.085938 15.457031 33.664062 16.128906 33.148438 16.730469 C 32.363281 17.648438 31.480469 18.503906 30.625 19.363281 C 29.785156 20.207031 28.921875 21.03125 28.054688 21.855469 C 27.222656 22.648438 26.3125 23.34375 25.441406 24.097656 C 25.183594 24.320312 25.257812 24.792969 25.550781 24.949219 C 27.054688 25.75 28.425781 26.792969 29.851562 27.714844 C 30.4375 28.097656 31.027344 28.496094 31.660156 28.796875 C 31.996094 28.953125 32.34375 29.097656 32.683594 28.882812 C 33.03125 28.664062 33.339844 28.339844 33.640625 28.066406 C 34.21875 27.539062 34.789062 27.003906 35.355469 26.464844 C 36.65625 25.226562 37.90625 23.9375 39.21875 22.710938 C 40.558594 21.457031 41.792969 20.144531 43.03125 18.792969 C 43.96875 17.769531 45.074219 16.878906 45.964844 15.8125 C 46.222656 15.5 46.335938 15.199219 46.132812 14.820312 C 45.914062 14.417969 45.597656 14.054688 45.316406 13.699219 Z M 32.113281 27.972656 C 32.113281 27.972656 32.109375 27.96875 32.105469 27.96875 C 32.046875 27.960938 32.082031 27.953125 32.140625 27.941406 C 32.121094 27.960938 32.113281 27.96875 32.113281 27.972656 Z M 44.59375 15.671875 C 44.078125 16.183594 43.554688 16.691406 43.042969 17.207031 C 41.859375 18.410156 40.792969 19.71875 39.578125 20.886719 C 37.269531 23.097656 35.019531 25.382812 32.636719 27.511719 C 32.503906 27.628906 32.367188 27.746094 32.230469 27.863281 C 32.070312 27.757812 31.847656 27.671875 31.671875 27.570312 C 31.332031 27.375 31 27.164062 30.667969 26.953125 C 29.363281 26.117188 28.105469 25.179688 26.769531 24.390625 C 27.441406 23.828125 28.125 23.28125 28.761719 22.679688 C 29.648438 21.839844 30.53125 20.996094 31.394531 20.128906 C 32.226562 19.289062 33.085938 18.453125 33.863281 17.558594 C 34.511719 16.8125 35.007812 15.960938 35.613281 15.183594 C 35.78125 14.972656 35.808594 14.773438 35.699219 14.527344 C 35.570312 14.234375 35.242188 13.964844 35.027344 13.734375 C 34.519531 13.195312 34.007812 12.660156 33.511719 12.109375 C 32.421875 10.914062 31.617188 9.53125 30.402344 8.4375 C 29.808594 7.898438 29.199219 7.386719 28.65625 6.796875 C 28.132812 6.226562 27.613281 5.648438 27.109375 5.0625 C 27.039062 4.984375 26.976562 4.902344 26.90625 4.824219 C 27.039062 4.757812 27.171875 4.683594 27.292969 4.628906 C 27.667969 4.464844 28.050781 4.3125 28.417969 4.121094 C 28.808594 3.917969 29.179688 3.671875 29.578125 3.476562 C 30.003906 3.265625 30.460938 3.128906 30.914062 2.992188 C 31.75 2.742188 32.578125 2.445312 33.417969 2.21875 C 34.484375 3.226562 35.554688 4.277344 36.46875 5.421875 C 36.96875 6.050781 37.445312 6.703125 37.984375 7.300781 C 38.570312 7.949219 39.175781 8.574219 39.769531 9.210938 C 40.347656 9.832031 40.90625 10.46875 41.511719 11.0625 C 42.082031 11.625 42.660156 12.171875 43.175781 12.78125 C 43.65625 13.34375 44.125 13.910156 44.574219 14.496094 C 44.714844 14.675781 44.851562 14.855469 44.980469 15.042969 C 45 15.066406 45.027344 15.128906 45.0625 15.191406 C 44.910156 15.355469 44.753906 15.515625 44.59375 15.671875 Z M 68.175781 13.878906 C 67.613281 13.347656 67.046875 12.824219 66.503906 12.273438 C 65.921875 11.683594 65.421875 11.039062 64.910156 10.386719 C 64.375 9.703125 63.785156 9.085938 63.175781 8.46875 C 62.515625 7.796875 61.859375 7.117188 61.1875 6.460938 C 60.546875 5.835938 59.847656 5.285156 59.15625 4.71875 C 58.015625 3.78125 57.007812 2.699219 55.96875 1.652344 C 55.691406 1.375 55.433594 1.082031 54.996094 1.1875 C 54.398438 1.328125 53.828125 1.769531 53.320312 2.09375 C 52.480469 2.632812 51.644531 3.183594 50.832031 3.757812 C 50.097656 4.277344 49.378906 4.835938 48.585938 5.261719 C 48.289062 5.421875 48.21875 5.886719 48.476562 6.117188 C 49.28125 6.835938 49.925781 7.710938 50.703125 8.460938 C 51.582031 9.304688 52.492188 10.117188 53.347656 10.988281 C 54.773438 12.433594 56.097656 13.941406 57.367188 15.519531 C 57.363281 15.523438 57.359375 15.527344 57.359375 15.53125 C 57.214844 15.78125 57.054688 16.023438 56.890625 16.257812 C 56.421875 16.921875 55.886719 17.535156 55.328125 18.121094 C 54.683594 18.800781 54.019531 19.460938 53.375 20.144531 C 52.792969 20.765625 52.136719 21.300781 51.511719 21.875 C 50.863281 22.46875 50.289062 23.140625 49.746094 23.828125 C 49.421875 24.234375 49.070312 24.65625 48.8125 25.113281 C 48.246094 26.121094 49.945312 26.605469 50.601562 26.886719 C 51.539062 27.285156 52.492188 27.648438 53.417969 28.078125 C 54.289062 28.484375 55.210938 28.847656 56.144531 29.089844 C 56.234375 29.113281 56.316406 29.113281 56.390625 29.097656 C 56.503906 29.089844 56.621094 29.046875 56.722656 28.945312 C 57.304688 28.390625 57.78125 27.742188 58.289062 27.121094 C 58.851562 26.441406 59.46875 25.820312 60.113281 25.21875 C 61.445312 23.972656 62.707031 22.644531 63.9375 21.300781 C 65.144531 19.976562 66.351562 18.644531 67.472656 17.25 C 67.875 16.75 68.277344 16.246094 68.640625 15.714844 C 68.820312 15.445312 69.050781 15.136719 68.949219 14.792969 C 68.839844 14.425781 68.441406 14.128906 68.175781 13.878906 Z M 67.917969 14.828125 C 67.9375 14.804688 67.953125 14.789062 67.917969 14.828125 Z M 49.671875 25.238281 C 49.664062 25.238281 49.660156 25.242188 49.65625 25.242188 C 49.648438 25.238281 49.652344 25.238281 49.671875 25.238281 Z M 49.722656 25.695312 C 49.726562 25.695312 49.664062 25.757812 49.738281 25.679688 C 49.742188 25.675781 49.746094 25.667969 49.75 25.660156 C 49.75 25.679688 49.742188 25.691406 49.722656 25.695312 Z M 66.84375 16.3125 C 65.804688 17.613281 64.683594 18.839844 63.574219 20.082031 C 62.300781 21.511719 60.976562 22.925781 59.578125 24.234375 C 58.894531 24.871094 58.226562 25.511719 57.625 26.230469 C 57.140625 26.8125 56.6875 27.421875 56.164062 27.964844 C 54.992188 27.625 53.910156 27.070312 52.78125 26.613281 C 51.839844 26.226562 50.816406 25.902344 49.929688 25.390625 C 50.136719 25.078125 50.363281 24.777344 50.597656 24.484375 C 51.394531 23.496094 52.273438 22.65625 53.214844 21.808594 C 54.191406 20.9375 55.078125 19.945312 55.988281 19 C 56.769531 18.183594 57.515625 17.320312 58.125 16.359375 C 58.25 16.164062 58.382812 15.960938 58.46875 15.742188 C 58.671875 15.257812 58.277344 14.925781 58 14.5625 C 57.246094 13.589844 56.441406 12.679688 55.601562 11.78125 C 54.542969 10.648438 53.457031 9.554688 52.324219 8.496094 C 51.753906 7.960938 51.183594 7.429688 50.65625 6.847656 C 50.355469 6.511719 50.058594 6.171875 49.746094 5.84375 C 50.890625 5.144531 51.957031 4.285156 53.070312 3.550781 C 53.652344 3.164062 54.234375 2.773438 54.84375 2.4375 C 54.925781 2.390625 55.007812 2.347656 55.089844 2.308594 C 56.003906 3.203125 56.859375 4.15625 57.820312 5.003906 C 58.40625 5.519531 59.027344 5.988281 59.621094 6.496094 C 60.285156 7.066406 60.894531 7.695312 61.503906 8.316406 C 62.117188 8.9375 62.753906 9.542969 63.339844 10.1875 C 63.855469 10.757812 64.308594 11.382812 64.789062 11.984375 C 65.667969 13.082031 66.75 13.972656 67.738281 14.964844 C 67.757812 14.984375 67.777344 15.003906 67.796875 15.027344 C 67.507812 15.472656 67.175781 15.894531 66.84375 16.3125 Z M 67.945312 15.183594 C 67.945312 15.179688 67.945312 15.175781 67.945312 15.171875 C 67.953125 15.1875 67.945312 15.1875 67.945312 15.183594 Z M 90.933594 13.699219 C 90.421875 13.054688 89.898438 12.414062 89.351562 11.800781 C 88.777344 11.15625 88.140625 10.574219 87.539062 9.957031 C 86.855469 9.257812 86.269531 8.488281 85.671875 7.714844 C 85.039062 6.890625 84.339844 6.132812 83.648438 5.359375 C 82.988281 4.625 82.332031 3.886719 81.617188 3.203125 C 80.980469 2.59375 80.300781 2.023438 79.652344 1.425781 C 79.574219 1.171875 79.335938 0.960938 79.003906 1.042969 C 78.167969 1.238281 77.398438 1.460938 76.617188 1.828125 C 75.8125 2.207031 74.984375 2.53125 74.1875 2.929688 C 73.484375 3.285156 72.742188 3.546875 72.042969 3.902344 C 71.640625 4.109375 71.15625 4.476562 71.453125 4.980469 C 71.679688 5.363281 72.066406 5.691406 72.363281 6.011719 C 72.929688 6.621094 73.496094 7.222656 74.050781 7.839844 C 75.265625 9.195312 76.46875 10.550781 77.722656 11.871094 C 78.390625 12.578125 79.042969 13.300781 79.703125 14.011719 C 79.96875 14.300781 80.238281 14.585938 80.503906 14.878906 C 80.527344 14.90625 80.550781 14.929688 80.574219 14.957031 C 79.996094 15.644531 79.382812 16.300781 78.769531 16.953125 C 77.992188 17.773438 77.039062 18.375 76.214844 19.136719 C 75.308594 19.972656 74.484375 20.898438 73.589844 21.746094 C 72.726562 22.566406 71.804688 23.316406 70.90625 24.097656 C 70.648438 24.324219 70.726562 24.792969 71.015625 24.949219 C 71.78125 25.363281 72.464844 25.910156 73.226562 26.328125 C 74.007812 26.761719 74.753906 27.21875 75.511719 27.691406 C 76.109375 28.058594 76.714844 28.429688 77.355469 28.710938 C 77.714844 28.871094 78.050781 28.996094 78.421875 28.800781 C 79.5 28.238281 80.492188 27.304688 81.355469 26.46875 C 81.945312 25.902344 82.457031 25.269531 82.996094 24.65625 C 83.597656 23.976562 84.242188 23.355469 84.9375 22.765625 C 85.632812 22.179688 86.328125 21.597656 86.96875 20.949219 C 87.609375 20.296875 88.222656 19.625 88.847656 18.960938 C 89.808594 17.9375 90.894531 16.945312 91.675781 15.769531 C 91.878906 15.460938 91.949219 15.171875 91.765625 14.832031 C 91.546875 14.425781 91.21875 14.058594 90.933594 13.699219 Z M 72.378906 4.421875 C 72.382812 4.421875 72.386719 4.433594 72.386719 4.441406 C 72.367188 4.425781 72.359375 4.410156 72.378906 4.421875 Z M 77.839844 27.886719 C 77.855469 27.792969 77.921875 27.789062 77.984375 27.800781 C 77.976562 27.804688 77.96875 27.808594 77.960938 27.816406 C 77.945312 27.828125 77.84375 27.867188 77.839844 27.886719 Z M 78.011719 27.8125 C 78.007812 27.808594 78.003906 27.808594 78 27.804688 C 78.082031 27.828125 78.140625 27.886719 78.011719 27.8125 Z M 88.851562 17.382812 C 87.683594 18.613281 86.570312 19.917969 85.300781 21.039062 C 84.683594 21.582031 84.035156 22.089844 83.429688 22.648438 C 82.804688 23.21875 82.253906 23.855469 81.703125 24.496094 C 80.738281 25.609375 79.667969 26.628906 78.460938 27.484375 C 78.304688 27.59375 78.144531 27.691406 77.988281 27.800781 C 77.441406 27.496094 76.867188 27.246094 76.332031 26.921875 C 75.523438 26.429688 74.742188 25.914062 73.910156 25.46875 C 73.320312 25.152344 72.777344 24.757812 72.214844 24.402344 C 72.917969 23.800781 73.625 23.207031 74.296875 22.570312 C 75.214844 21.703125 76.058594 20.757812 76.980469 19.902344 C 77.785156 19.160156 78.71875 18.582031 79.476562 17.78125 C 80.222656 16.992188 80.96875 16.195312 81.652344 15.351562 C 81.820312 15.140625 81.847656 14.933594 81.738281 14.691406 C 81.59375 14.375 81.246094 14.085938 81.015625 13.835938 C 80.503906 13.277344 79.980469 12.722656 79.46875 12.164062 C 78.335938 10.921875 77.148438 9.730469 76.039062 8.464844 C 75.019531 7.300781 73.976562 6.160156 72.925781 5.027344 C 72.859375 4.953125 72.792969 4.878906 72.726562 4.804688 C 72.882812 4.722656 73.035156 4.628906 73.179688 4.566406 C 73.566406 4.398438 73.957031 4.25 74.335938 4.066406 C 75.125 3.6875 75.925781 3.339844 76.71875 2.972656 C 77.152344 2.773438 77.574219 2.550781 78.027344 2.40625 C 78.304688 2.316406 78.589844 2.25 78.871094 2.183594 C 80.011719 3.234375 81.167969 4.238281 82.214844 5.386719 C 83.34375 6.628906 84.429688 7.878906 85.457031 9.203125 C 86.445312 10.480469 87.675781 11.511719 88.726562 12.726562 C 89.230469 13.3125 89.722656 13.90625 90.203125 14.511719 C 90.34375 14.695312 90.488281 14.875 90.621094 15.066406 C 90.640625 15.089844 90.679688 15.167969 90.722656 15.242188 C 90.605469 15.414062 90.472656 15.574219 90.339844 15.734375 C 89.867188 16.300781 89.359375 16.847656 88.851562 17.382812 Z M 88.851562 17.382812 "/></g><g transform="matrix(1,0,0,1,39,32)"><g id="84785d45aa" clip-path="url(#a04748bc48)"><g style="fill:#00357a;fill-opacity:1;"><g transform="translate(0.199607, 74.808424)"><path style="stroke:none" d="M 40.933594 1.15625 C 34.351562 1.15625 28.292969 -0.472656 22.753906 -3.730469 C 17.214844 -6.992188 12.824219 -11.40625 9.582031 -16.976562 C 6.339844 -22.542969 4.71875 -28.605469 4.71875 -35.152344 C 4.71875 -41.671875 6.339844 -47.699219 9.582031 -53.234375 C 12.824219 -58.773438 17.214844 -63.164062 22.753906 -66.40625 C 28.292969 -69.648438 34.351562 -71.269531 40.933594 -71.269531 C 46.582031 -71.269531 51.878906 -70.050781 56.824219 -67.609375 C 61.765625 -65.171875 65.925781 -61.816406 69.296875 -57.546875 L 61.109375 -51.476562 C 58.703125 -54.496094 55.730469 -56.863281 52.199219 -58.582031 C 48.667969 -60.296875 44.914062 -61.15625 40.933594 -61.15625 C 36.214844 -61.15625 31.855469 -59.992188 27.859375 -57.667969 C 23.859375 -55.339844 20.691406 -52.191406 18.347656 -48.226562 C 16.003906 -44.261719 14.832031 -39.921875 14.832031 -35.203125 C 14.832031 -30.417969 16.003906 -26.019531 18.347656 -22.007812 C 20.691406 -17.992188 23.859375 -14.824219 27.859375 -12.496094 C 31.855469 -10.167969 36.214844 -9.003906 40.933594 -9.003906 C 45.007812 -9.003906 48.835938 -9.894531 52.417969 -11.675781 C 55.996094 -13.460938 58.957031 -15.90625 61.300781 -19.019531 L 70.019531 -13.628906 C 66.679688 -9.039062 62.464844 -5.425781 57.378906 -2.792969 C 52.289062 -0.160156 46.808594 1.15625 40.933594 1.15625 Z M 40.933594 1.15625 "/></g></g><g style="fill:#00357a;fill-opacity:1;"><g transform="translate(73.585207, 74.808424)"><path style="stroke:none" d="M 30.933594 0.722656 C 25.96875 0.722656 21.40625 -0.507812 17.246094 -2.964844 C 13.089844 -5.421875 9.800781 -8.734375 7.382812 -12.90625 C 4.964844 -17.074219 3.757812 -21.617188 3.757812 -26.535156 C 3.757812 -31.425781 4.96875 -35.945312 7.390625 -40.097656 C 9.816406 -44.25 13.105469 -47.546875 17.261719 -49.984375 C 21.417969 -52.425781 25.976562 -53.644531 30.9375 -53.644531 C 35.835938 -53.644531 40.355469 -52.425781 44.496094 -49.984375 C 48.636719 -47.546875 51.9375 -44.246094 54.390625 -40.089844 C 56.847656 -35.933594 58.074219 -31.410156 58.074219 -26.511719 C 58.074219 -21.613281 56.847656 -17.082031 54.386719 -12.910156 C 51.929688 -8.738281 48.632812 -5.421875 44.492188 -2.964844 C 40.351562 -0.507812 35.832031 0.722656 30.933594 0.722656 Z M 30.929688 -8.8125 C 34.097656 -8.8125 37.03125 -9.609375 39.730469 -11.203125 C 42.429688 -12.796875 44.574219 -14.953125 46.160156 -17.664062 C 47.746094 -20.378906 48.539062 -23.328125 48.539062 -26.515625 C 48.539062 -29.707031 47.746094 -32.640625 46.160156 -35.320312 C 44.574219 -38.003906 42.429688 -40.136719 39.730469 -41.726562 C 37.03125 -43.316406 34.097656 -44.109375 30.929688 -44.109375 C 27.710938 -44.109375 24.75 -43.316406 22.050781 -41.726562 C 19.351562 -40.136719 17.210938 -38.003906 15.621094 -35.320312 C 14.035156 -32.640625 13.242188 -29.707031 13.242188 -26.515625 C 13.242188 -23.328125 14.035156 -20.378906 15.621094 -17.664062 C 17.210938 -14.953125 19.351562 -12.796875 22.050781 -11.203125 C 24.75 -9.609375 27.710938 -8.8125 30.929688 -8.8125 Z M 30.929688 -8.8125 "/></g></g><g style="fill:#00357a;fill-opacity:1;"><g transform="translate(135.414017, 74.808424)"><path style="stroke:none" d="M 6.886719 -52.972656 L 15.554688 -52.972656 L 16.035156 -43.582031 C 17.578125 -46.566406 19.785156 -49 22.65625 -50.875 C 25.53125 -52.753906 28.894531 -53.691406 32.746094 -53.691406 C 36.984375 -53.691406 40.722656 -52.714844 43.964844 -50.753906 C 47.207031 -48.796875 49.753906 -45.8125 51.597656 -41.800781 C 53.445312 -37.785156 54.367188 -32.824219 54.367188 -26.917969 L 54.367188 0 L 44.976562 0 L 44.976562 -26.917969 C 44.976562 -30.804688 44.335938 -34.054688 43.050781 -36.671875 C 41.765625 -39.285156 40.050781 -41.238281 37.898438 -42.519531 C 35.746094 -43.804688 33.324219 -44.449219 30.625 -44.449219 C 27.929688 -44.449219 25.507812 -43.8125 23.355469 -42.546875 C 21.203125 -41.277344 19.488281 -39.335938 18.203125 -36.71875 C 16.917969 -34.101562 16.277344 -30.835938 16.277344 -26.917969 L 16.277344 0 L 6.886719 0 Z M 6.886719 -52.972656 "/></g></g><g style="fill:#00357a;fill-opacity:1;"><g transform="translate(195.605615, 74.808424)"><path style="stroke:none" d="M 27.160156 0.867188 C 21.894531 0.867188 17.601562 -0.828125 14.277344 -4.214844 C 10.957031 -7.601562 9.292969 -12.761719 9.292969 -19.695312 L 9.292969 -44.496094 L 2.167969 -44.496094 L 2.167969 -52.972656 L 9.582031 -52.972656 L 10.738281 -70.308594 L 18.683594 -70.308594 L 18.683594 -52.972656 L 31.398438 -52.972656 L 31.398438 -44.496094 L 18.683594 -44.496094 L 18.683594 -19.839844 C 18.683594 -16.082031 19.535156 -13.210938 21.238281 -11.21875 C 22.9375 -9.230469 25.3125 -8.234375 28.363281 -8.234375 C 29.808594 -8.234375 31.15625 -8.476562 32.410156 -8.957031 L 34.816406 -0.53125 C 32.570312 0.402344 30.015625 0.867188 27.160156 0.867188 Z M 27.160156 0.867188 "/></g></g><g style="fill:#00357a;fill-opacity:1;"><g transform="translate(233.550412, 74.808424)"><path style="stroke:none" d="M 6.886719 -52.921875 L 15.554688 -52.972656 L 16.132812 -44.304688 C 17.707031 -47.160156 19.945312 -49.375 22.851562 -50.949219 C 25.753906 -52.523438 29.132812 -53.292969 32.988281 -53.261719 C 34.335938 -53.261719 35.667969 -53.164062 36.984375 -52.972656 L 35.058594 -43.917969 C 34.414062 -44.015625 33.789062 -44.0625 33.179688 -44.0625 C 28.203125 -44.09375 24.140625 -42.546875 20.996094 -39.414062 C 17.851562 -36.285156 16.277344 -31.285156 16.277344 -24.414062 L 16.277344 0 L 6.886719 0 Z M 6.886719 -52.921875 "/></g></g><g style="fill:#00357a;fill-opacity:1;"><g transform="translate(272.843464, 74.808424)"><path style="stroke:none" d="M 29.566406 0.675781 C 24.890625 0.675781 20.582031 -0.546875 16.644531 -2.984375 C 12.707031 -5.425781 9.574219 -8.726562 7.246094 -12.890625 C 4.917969 -17.054688 3.757812 -21.589844 3.757812 -26.496094 C 3.757812 -31.398438 4.921875 -35.933594 7.253906 -40.09375 C 9.585938 -44.257812 12.714844 -47.5625 16.644531 -50.015625 C 20.574219 -52.46875 24.878906 -53.691406 29.566406 -53.691406 C 33.820312 -53.691406 37.75 -52.578125 41.351562 -50.347656 C 44.957031 -48.117188 47.59375 -45.265625 49.261719 -41.800781 L 49.746094 -52.972656 L 58.414062 -52.972656 L 58.414062 0 L 49.746094 0 L 49.261719 -11.027344 C 47.59375 -7.65625 44.957031 -4.863281 41.351562 -2.648438 C 37.75 -0.433594 33.820312 0.675781 29.566406 0.675781 Z M 31.042969 -8.621094 C 34.292969 -8.621094 37.296875 -9.421875 40.0625 -11.027344 C 42.824219 -12.632812 45.007812 -14.800781 46.613281 -17.53125 C 48.21875 -20.265625 49.023438 -23.25 49.023438 -26.488281 C 49.023438 -29.730469 48.21875 -32.722656 46.613281 -35.464844 C 45.007812 -38.210938 42.824219 -40.394531 40.0625 -42.015625 C 37.296875 -43.636719 34.292969 -44.449219 31.042969 -44.449219 C 27.84375 -44.449219 24.878906 -43.636719 22.148438 -42.019531 C 19.421875 -40.402344 17.253906 -38.214844 15.648438 -35.460938 C 14.042969 -32.707031 13.242188 -29.714844 13.242188 -26.476562 C 13.242188 -23.238281 14.046875 -20.257812 15.652344 -17.527344 C 17.253906 -14.800781 19.421875 -12.632812 22.152344 -11.027344 C 24.878906 -9.421875 27.84375 -8.621094 31.042969 -8.621094 Z M 31.042969 -8.621094 "/></g></g><g style="fill:#00357a;fill-opacity:1;"><g transform="translate(338.139324, 74.808424)"><path style="stroke:none" d="M 27.160156 0.867188 C 21.894531 0.867188 17.601562 -0.828125 14.277344 -4.214844 C 10.957031 -7.601562 9.292969 -12.761719 9.292969 -19.695312 L 9.292969 -44.496094 L 2.167969 -44.496094 L 2.167969 -52.972656 L 9.582031 -52.972656 L 10.738281 -70.308594 L 18.683594 -70.308594 L 18.683594 -52.972656 L 31.398438 -52.972656 L 31.398438 -44.496094 L 18.683594 -44.496094 L 18.683594 -19.839844 C 18.683594 -16.082031 19.535156 -13.210938 21.238281 -11.21875 C 22.9375 -9.230469 25.3125 -8.234375 28.363281 -8.234375 C 29.808594 -8.234375 31.15625 -8.476562 32.410156 -8.957031 L 34.816406 -0.53125 C 32.570312 0.402344 30.015625 0.867188 27.160156 0.867188 Z M 27.160156 0.867188 "/></g></g><g style="fill:#00357a;fill-opacity:1;"><g transform="translate(376.084122, 74.808424)"><path style="stroke:none" d="M 6.886719 -52.921875 L 15.554688 -52.972656 L 16.132812 -44.304688 C 17.707031 -47.160156 19.945312 -49.375 22.851562 -50.949219 C 25.753906 -52.523438 29.132812 -53.292969 32.988281 -53.261719 C 34.335938 -53.261719 35.667969 -53.164062 36.984375 -52.972656 L 35.058594 -43.917969 C 34.414062 -44.015625 33.789062 -44.0625 33.179688 -44.0625 C 28.203125 -44.09375 24.140625 -42.546875 20.996094 -39.414062 C 17.851562 -36.285156 16.277344 -31.285156 16.277344 -24.414062 L 16.277344 0 L 6.886719 0 Z M 6.886719 -52.921875 "/></g></g><g style="fill:#00357a;fill-opacity:1;"><g transform="translate(415.377174, 74.808424)"><path style="stroke:none" d="M 6.886719 -52.972656 L 16.277344 -52.972656 L 16.277344 0 L 6.886719 0 Z M 11.605469 -58.363281 C 10 -58.363281 8.613281 -58.949219 7.441406 -60.121094 C 6.269531 -61.292969 5.683594 -62.683594 5.683594 -64.289062 C 5.683594 -65.925781 6.269531 -67.328125 7.441406 -68.5 C 8.613281 -69.671875 10 -70.257812 11.605469 -70.257812 C 13.210938 -70.257812 14.589844 -69.664062 15.746094 -68.476562 C 16.902344 -67.289062 17.480469 -65.894531 17.480469 -64.289062 C 17.480469 -62.683594 16.902344 -61.292969 15.746094 -60.121094 C 14.589844 -58.949219 13.210938 -58.363281 11.605469 -58.363281 Z M 11.605469 -58.363281 "/></g></g><g style="fill:#00357a;fill-opacity:1;"><g transform="translate(438.490781, 74.808424)"><path style="stroke:none" d="M 22.246094 -26.484375 L 2.167969 -52.972656 L 13.484375 -52.972656 L 28.699219 -33.707031 L 43.871094 -52.972656 L 55.136719 -52.972656 L 35.105469 -26.484375 L 55.136719 0 L 43.871094 0 L 28.699219 -19.308594 L 13.484375 0 L 2.167969 0 Z M 22.246094 -26.484375 "/></g></g></g></g><g clip-rule="nonzero" clip-path="url(#43c927fd97)"><g transform="matrix(1,0,0,1,0,124)"><g id="4974947b70" clip-path="url(#4561c3433d)"><g style="fill:#00357a;fill-opacity:1;"><g transform="translate(0.847438, 20.352071)"><path style="stroke:none" d="M 5.5 0.125 C 4.644531 0.125 3.882812 -0.0234375 3.21875 -0.328125 C 2.550781 -0.628906 2.023438 -1.046875 1.640625 -1.578125 C 1.253906 -2.109375 1.054688 -2.722656 1.046875 -3.421875 L 2.84375 -3.421875 C 2.90625 -2.828125 3.148438 -2.320312 3.578125 -1.90625 C 4.015625 -1.5 4.65625 -1.296875 5.5 -1.296875 C 6.289062 -1.296875 6.914062 -1.492188 7.375 -1.890625 C 7.84375 -2.285156 8.078125 -2.796875 8.078125 -3.421875 C 8.078125 -3.921875 7.941406 -4.320312 7.671875 -4.625 C 7.398438 -4.9375 7.0625 -5.171875 6.65625 -5.328125 C 6.25 -5.484375 5.703125 -5.65625 5.015625 -5.84375 C 4.171875 -6.0625 3.492188 -6.28125 2.984375 -6.5 C 2.472656 -6.726562 2.035156 -7.078125 1.671875 -7.546875 C 1.304688 -8.023438 1.125 -8.660156 1.125 -9.453125 C 1.125 -10.160156 1.300781 -10.78125 1.65625 -11.3125 C 2.007812 -11.851562 2.507812 -12.269531 3.15625 -12.5625 C 3.800781 -12.863281 4.546875 -13.015625 5.390625 -13.015625 C 6.585938 -13.015625 7.570312 -12.710938 8.34375 -12.109375 C 9.113281 -11.503906 9.546875 -10.707031 9.640625 -9.71875 L 7.796875 -9.71875 C 7.734375 -10.207031 7.472656 -10.640625 7.015625 -11.015625 C 6.566406 -11.390625 5.96875 -11.578125 5.21875 -11.578125 C 4.519531 -11.578125 3.945312 -11.394531 3.5 -11.03125 C 3.0625 -10.664062 2.84375 -10.160156 2.84375 -9.515625 C 2.84375 -9.046875 2.972656 -8.660156 3.234375 -8.359375 C 3.492188 -8.066406 3.816406 -7.84375 4.203125 -7.6875 C 4.597656 -7.539062 5.144531 -7.367188 5.84375 -7.171875 C 6.6875 -6.941406 7.367188 -6.710938 7.890625 -6.484375 C 8.410156 -6.253906 8.851562 -5.898438 9.21875 -5.421875 C 9.582031 -4.953125 9.765625 -4.3125 9.765625 -3.5 C 9.765625 -2.875 9.597656 -2.285156 9.265625 -1.734375 C 8.941406 -1.179688 8.453125 -0.734375 7.796875 -0.390625 C 7.148438 -0.046875 6.382812 0.125 5.5 0.125 Z M 5.5 0.125 "/></g></g><g style="fill:#00357a;fill-opacity:1;"><g transform="translate(15.50472, 20.352071)"><path style="stroke:none" d="M 3.09375 -11.484375 L 3.09375 -7.1875 L 7.78125 -7.1875 L 7.78125 -5.8125 L 3.09375 -5.8125 L 3.09375 -1.375 L 8.328125 -1.375 L 8.328125 0 L 1.421875 0 L 1.421875 -12.875 L 8.328125 -12.875 L 8.328125 -11.484375 Z M 3.09375 -11.484375 "/></g></g><g style="fill:#00357a;fill-opacity:1;"><g transform="translate(28.797744, 20.352071)"><path style="stroke:none" d="M 3.0625 -12.84375 L 3.0625 -4.71875 C 3.0625 -3.570312 3.335938 -2.722656 3.890625 -2.171875 C 4.453125 -1.617188 5.234375 -1.34375 6.234375 -1.34375 C 7.210938 -1.34375 7.984375 -1.617188 8.546875 -2.171875 C 9.109375 -2.722656 9.390625 -3.570312 9.390625 -4.71875 L 9.390625 -12.84375 L 11.0625 -12.84375 L 11.0625 -4.734375 C 11.0625 -3.671875 10.84375 -2.769531 10.40625 -2.03125 C 9.976562 -1.300781 9.398438 -0.757812 8.671875 -0.40625 C 7.941406 -0.0507812 7.125 0.125 6.21875 0.125 C 5.300781 0.125 4.476562 -0.0507812 3.75 -0.40625 C 3.019531 -0.757812 2.441406 -1.300781 2.015625 -2.03125 C 1.585938 -2.769531 1.375 -3.671875 1.375 -4.734375 L 1.375 -12.84375 Z M 3.0625 -12.84375 "/></g></g><g style="fill:#00357a;fill-opacity:1;"><g transform="translate(45.077387, 20.352071)"><path style="stroke:none" d="M 5.5 0.125 C 4.644531 0.125 3.882812 -0.0234375 3.21875 -0.328125 C 2.550781 -0.628906 2.023438 -1.046875 1.640625 -1.578125 C 1.253906 -2.109375 1.054688 -2.722656 1.046875 -3.421875 L 2.84375 -3.421875 C 2.90625 -2.828125 3.148438 -2.320312 3.578125 -1.90625 C 4.015625 -1.5 4.65625 -1.296875 5.5 -1.296875 C 6.289062 -1.296875 6.914062 -1.492188 7.375 -1.890625 C 7.84375 -2.285156 8.078125 -2.796875 8.078125 -3.421875 C 8.078125 -3.921875 7.941406 -4.320312 7.671875 -4.625 C 7.398438 -4.9375 7.0625 -5.171875 6.65625 -5.328125 C 6.25 -5.484375 5.703125 -5.65625 5.015625 -5.84375 C 4.171875 -6.0625 3.492188 -6.28125 2.984375 -6.5 C 2.472656 -6.726562 2.035156 -7.078125 1.671875 -7.546875 C 1.304688 -8.023438 1.125 -8.660156 1.125 -9.453125 C 1.125 -10.160156 1.300781 -10.78125 1.65625 -11.3125 C 2.007812 -11.851562 2.507812 -12.269531 3.15625 -12.5625 C 3.800781 -12.863281 4.546875 -13.015625 5.390625 -13.015625 C 6.585938 -13.015625 7.570312 -12.710938 8.34375 -12.109375 C 9.113281 -11.503906 9.546875 -10.707031 9.640625 -9.71875 L 7.796875 -9.71875 C 7.734375 -10.207031 7.472656 -10.640625 7.015625 -11.015625 C 6.566406 -11.390625 5.96875 -11.578125 5.21875 -11.578125 C 4.519531 -11.578125 3.945312 -11.394531 3.5 -11.03125 C 3.0625 -10.664062 2.84375 -10.160156 2.84375 -9.515625 C 2.84375 -9.046875 2.972656 -8.660156 3.234375 -8.359375 C 3.492188 -8.066406 3.816406 -7.84375 4.203125 -7.6875 C 4.597656 -7.539062 5.144531 -7.367188 5.84375 -7.171875 C 6.6875 -6.941406 7.367188 -6.710938 7.890625 -6.484375 C 8.410156 -6.253906 8.851562 -5.898438 9.21875 -5.421875 C 9.582031 -4.953125 9.765625 -4.3125 9.765625 -3.5 C 9.765625 -2.875 9.597656 -2.285156 9.265625 -1.734375 C 8.941406 -1.179688 8.453125 -0.734375 7.796875 -0.390625 C 7.148438 -0.046875 6.382812 0.125 5.5 0.125 Z M 5.5 0.125 "/></g></g><g style="fill:#00357a;fill-opacity:1;"><g transform="translate(59.734669, 20.352071)"><path style="stroke:none" d=""/></g></g><g style="fill:#00357a;fill-opacity:1;"><g transform="translate(68.492458, 20.352071)"><path style="stroke:none" d="M 0.796875 -6.4375 C 0.796875 -7.6875 1.078125 -8.8125 1.640625 -9.8125 C 2.203125 -10.820312 2.972656 -11.609375 3.953125 -12.171875 C 4.929688 -12.734375 6.015625 -13.015625 7.203125 -13.015625 C 8.609375 -13.015625 9.832031 -12.675781 10.875 -12 C 11.914062 -11.320312 12.679688 -10.363281 13.171875 -9.125 L 11.15625 -9.125 C 10.800781 -9.894531 10.285156 -10.488281 9.609375 -10.90625 C 8.941406 -11.332031 8.140625 -11.546875 7.203125 -11.546875 C 6.304688 -11.546875 5.5 -11.332031 4.78125 -10.90625 C 4.070312 -10.488281 3.515625 -9.894531 3.109375 -9.125 C 2.703125 -8.363281 2.5 -7.46875 2.5 -6.4375 C 2.5 -5.414062 2.703125 -4.519531 3.109375 -3.75 C 3.515625 -2.976562 4.070312 -2.382812 4.78125 -1.96875 C 5.5 -1.550781 6.304688 -1.34375 7.203125 -1.34375 C 8.140625 -1.34375 8.941406 -1.546875 9.609375 -1.953125 C 10.285156 -2.367188 10.800781 -2.96875 11.15625 -3.75 L 13.171875 -3.75 C 12.679688 -2.519531 11.914062 -1.566406 10.875 -0.890625 C 9.832031 -0.222656 8.609375 0.109375 7.203125 0.109375 C 6.015625 0.109375 4.929688 -0.164062 3.953125 -0.71875 C 2.972656 -1.28125 2.203125 -2.054688 1.640625 -3.046875 C 1.078125 -4.046875 0.796875 -5.175781 0.796875 -6.4375 Z M 0.796875 -6.4375 "/></g></g><g style="fill:#00357a;fill-opacity:1;"><g transform="translate(86.560383, 20.352071)"><path style="stroke:none" d="M 7.25 0.125 C 6.050781 0.125 4.957031 -0.148438 3.96875 -0.703125 C 2.988281 -1.265625 2.210938 -2.046875 1.640625 -3.046875 C 1.078125 -4.046875 0.796875 -5.175781 0.796875 -6.4375 C 0.796875 -7.6875 1.078125 -8.8125 1.640625 -9.8125 C 2.210938 -10.820312 2.988281 -11.601562 3.96875 -12.15625 C 4.957031 -12.71875 6.050781 -13 7.25 -13 C 8.445312 -13 9.535156 -12.71875 10.515625 -12.15625 C 11.503906 -11.601562 12.28125 -10.828125 12.84375 -9.828125 C 13.414062 -8.828125 13.703125 -7.695312 13.703125 -6.4375 C 13.703125 -5.164062 13.414062 -4.03125 12.84375 -3.03125 C 12.28125 -2.039062 11.503906 -1.265625 10.515625 -0.703125 C 9.535156 -0.148438 8.445312 0.125 7.25 0.125 Z M 7.25 -1.328125 C 8.144531 -1.328125 8.953125 -1.535156 9.671875 -1.953125 C 10.390625 -2.367188 10.953125 -2.960938 11.359375 -3.734375 C 11.773438 -4.515625 11.984375 -5.414062 11.984375 -6.4375 C 11.984375 -7.46875 11.773438 -8.363281 11.359375 -9.125 C 10.953125 -9.894531 10.390625 -10.488281 9.671875 -10.90625 C 8.960938 -11.332031 8.15625 -11.546875 7.25 -11.546875 C 6.332031 -11.546875 5.519531 -11.332031 4.8125 -10.90625 C 4.101562 -10.488281 3.539062 -9.894531 3.125 -9.125 C 2.707031 -8.363281 2.5 -7.46875 2.5 -6.4375 C 2.5 -5.414062 2.707031 -4.515625 3.125 -3.734375 C 3.539062 -2.960938 4.109375 -2.367188 4.828125 -1.953125 C 5.546875 -1.535156 6.351562 -1.328125 7.25 -1.328125 Z M 7.25 -1.328125 "/></g></g><g style="fill:#00357a;fill-opacity:1;"><g transform="translate(104.886404, 20.352071)"><path style="stroke:none" d="M 11.515625 0 L 9.84375 0 L 3.09375 -10.234375 L 3.09375 0 L 1.421875 0 L 1.421875 -12.875 L 3.09375 -12.875 L 9.84375 -2.65625 L 9.84375 -12.875 L 11.515625 -12.875 Z M 11.515625 0 "/></g></g><g style="fill:#00357a;fill-opacity:1;"><g transform="translate(121.682263, 20.352071)"><path style="stroke:none" d="M 9.328125 -12.84375 L 9.328125 -11.484375 L 5.828125 -11.484375 L 5.828125 0 L 4.140625 0 L 4.140625 -11.484375 L 0.625 -11.484375 L 0.625 -12.84375 Z M 9.328125 -12.84375 "/></g></g><g style="fill:#00357a;fill-opacity:1;"><g transform="translate(135.491485, 20.352071)"><path style="stroke:none" d="M 8.1875 0 L 5.125 -5.25 L 3.09375 -5.25 L 3.09375 0 L 1.421875 0 L 1.421875 -12.84375 L 5.5625 -12.84375 C 6.539062 -12.84375 7.363281 -12.675781 8.03125 -12.34375 C 8.695312 -12.019531 9.195312 -11.570312 9.53125 -11 C 9.863281 -10.4375 10.03125 -9.796875 10.03125 -9.078125 C 10.03125 -8.191406 9.773438 -7.410156 9.265625 -6.734375 C 8.753906 -6.054688 7.988281 -5.609375 6.96875 -5.390625 L 10.203125 0 Z M 3.09375 -6.59375 L 5.5625 -6.59375 C 6.476562 -6.59375 7.160156 -6.816406 7.609375 -7.265625 C 8.066406 -7.722656 8.296875 -8.328125 8.296875 -9.078125 C 8.296875 -9.835938 8.070312 -10.425781 7.625 -10.84375 C 7.175781 -11.257812 6.488281 -11.46875 5.5625 -11.46875 L 3.09375 -11.46875 Z M 3.09375 -6.59375 "/></g></g><g style="fill:#00357a;fill-opacity:1;"><g transform="translate(150.535923, 20.352071)"><path style="stroke:none" d="M 9.015625 -2.859375 L 3.40625 -2.859375 L 2.375 0 L 0.609375 0 L 5.25 -12.78125 L 7.1875 -12.78125 L 11.8125 0 L 10.046875 0 Z M 8.53125 -4.21875 L 6.21875 -10.71875 L 3.890625 -4.21875 Z M 8.53125 -4.21875 "/></g></g><g style="fill:#00357a;fill-opacity:1;"><g transform="translate(166.797128, 20.352071)"><path style="stroke:none" d="M 9.328125 -12.84375 L 9.328125 -11.484375 L 5.828125 -11.484375 L 5.828125 0 L 4.140625 0 L 4.140625 -11.484375 L 0.625 -11.484375 L 0.625 -12.84375 Z M 9.328125 -12.84375 "/></g></g><g style="fill:#00357a;fill-opacity:1;"><g transform="translate(180.606363, 20.352071)"><path style="stroke:none" d="M 7.25 0.125 C 6.050781 0.125 4.957031 -0.148438 3.96875 -0.703125 C 2.988281 -1.265625 2.210938 -2.046875 1.640625 -3.046875 C 1.078125 -4.046875 0.796875 -5.175781 0.796875 -6.4375 C 0.796875 -7.6875 1.078125 -8.8125 1.640625 -9.8125 C 2.210938 -10.820312 2.988281 -11.601562 3.96875 -12.15625 C 4.957031 -12.71875 6.050781 -13 7.25 -13 C 8.445312 -13 9.535156 -12.71875 10.515625 -12.15625 C 11.503906 -11.601562 12.28125 -10.828125 12.84375 -9.828125 C 13.414062 -8.828125 13.703125 -7.695312 13.703125 -6.4375 C 13.703125 -5.164062 13.414062 -4.03125 12.84375 -3.03125 C 12.28125 -2.039062 11.503906 -1.265625 10.515625 -0.703125 C 9.535156 -0.148438 8.445312 0.125 7.25 0.125 Z M 7.25 -1.328125 C 8.144531 -1.328125 8.953125 -1.535156 9.671875 -1.953125 C 10.390625 -2.367188 10.953125 -2.960938 11.359375 -3.734375 C 11.773438 -4.515625 11.984375 -5.414062 11.984375 -6.4375 C 11.984375 -7.46875 11.773438 -8.363281 11.359375 -9.125 C 10.953125 -9.894531 10.390625 -10.488281 9.671875 -10.90625 C 8.960938 -11.332031 8.15625 -11.546875 7.25 -11.546875 C 6.332031 -11.546875 5.519531 -11.332031 4.8125 -10.90625 C 4.101562 -10.488281 3.539062 -9.894531 3.125 -9.125 C 2.707031 -8.363281 2.5 -7.46875 2.5 -6.4375 C 2.5 -5.414062 2.707031 -4.515625 3.125 -3.734375 C 3.539062 -2.960938 4.109375 -2.367188 4.828125 -1.953125 C 5.546875 -1.535156 6.351562 -1.328125 7.25 -1.328125 Z M 7.25 -1.328125 "/></g></g><g style="fill:#00357a;fill-opacity:1;"><g transform="translate(198.932383, 20.352071)"><path style="stroke:none" d="M 5.5 0.125 C 4.644531 0.125 3.882812 -0.0234375 3.21875 -0.328125 C 2.550781 -0.628906 2.023438 -1.046875 1.640625 -1.578125 C 1.253906 -2.109375 1.054688 -2.722656 1.046875 -3.421875 L 2.84375 -3.421875 C 2.90625 -2.828125 3.148438 -2.320312 3.578125 -1.90625 C 4.015625 -1.5 4.65625 -1.296875 5.5 -1.296875 C 6.289062 -1.296875 6.914062 -1.492188 7.375 -1.890625 C 7.84375 -2.285156 8.078125 -2.796875 8.078125 -3.421875 C 8.078125 -3.921875 7.941406 -4.320312 7.671875 -4.625 C 7.398438 -4.9375 7.0625 -5.171875 6.65625 -5.328125 C 6.25 -5.484375 5.703125 -5.65625 5.015625 -5.84375 C 4.171875 -6.0625 3.492188 -6.28125 2.984375 -6.5 C 2.472656 -6.726562 2.035156 -7.078125 1.671875 -7.546875 C 1.304688 -8.023438 1.125 -8.660156 1.125 -9.453125 C 1.125 -10.160156 1.300781 -10.78125 1.65625 -11.3125 C 2.007812 -11.851562 2.507812 -12.269531 3.15625 -12.5625 C 3.800781 -12.863281 4.546875 -13.015625 5.390625 -13.015625 C 6.585938 -13.015625 7.570312 -12.710938 8.34375 -12.109375 C 9.113281 -11.503906 9.546875 -10.707031 9.640625 -9.71875 L 7.796875 -9.71875 C 7.734375 -10.207031 7.472656 -10.640625 7.015625 -11.015625 C 6.566406 -11.390625 5.96875 -11.578125 5.21875 -11.578125 C 4.519531 -11.578125 3.945312 -11.394531 3.5 -11.03125 C 3.0625 -10.664062 2.84375 -10.160156 2.84375 -9.515625 C 2.84375 -9.046875 2.972656 -8.660156 3.234375 -8.359375 C 3.492188 -8.066406 3.816406 -7.84375 4.203125 -7.6875 C 4.597656 -7.539062 5.144531 -7.367188 5.84375 -7.171875 C 6.6875 -6.941406 7.367188 -6.710938 7.890625 -6.484375 C 8.410156 -6.253906 8.851562 -5.898438 9.21875 -5.421875 C 9.582031 -4.953125 9.765625 -4.3125 9.765625 -3.5 C 9.765625 -2.875 9.597656 -2.285156 9.265625 -1.734375 C 8.941406 -1.179688 8.453125 -0.734375 7.796875 -0.390625 C 7.148438 -0.046875 6.382812 0.125 5.5 0.125 Z M 5.5 0.125 "/></g></g><g style="fill:#00357a;fill-opacity:1;"><g transform="translate(213.589666, 20.352071)"><path style="stroke:none" d=""/></g></g><g style="fill:#00357a;fill-opacity:1;"><g transform="translate(222.347461, 20.352071)"><path style="stroke:none" d="M 8.1875 0 L 5.125 -5.25 L 3.09375 -5.25 L 3.09375 0 L 1.421875 0 L 1.421875 -12.84375 L 5.5625 -12.84375 C 6.539062 -12.84375 7.363281 -12.675781 8.03125 -12.34375 C 8.695312 -12.019531 9.195312 -11.570312 9.53125 -11 C 9.863281 -10.4375 10.03125 -9.796875 10.03125 -9.078125 C 10.03125 -8.191406 9.773438 -7.410156 9.265625 -6.734375 C 8.753906 -6.054688 7.988281 -5.609375 6.96875 -5.390625 L 10.203125 0 Z M 3.09375 -6.59375 L 5.5625 -6.59375 C 6.476562 -6.59375 7.160156 -6.816406 7.609375 -7.265625 C 8.066406 -7.722656 8.296875 -8.328125 8.296875 -9.078125 C 8.296875 -9.835938 8.070312 -10.425781 7.625 -10.84375 C 7.175781 -11.257812 6.488281 -11.46875 5.5625 -11.46875 L 3.09375 -11.46875 Z M 3.09375 -6.59375 "/></g></g><g style="fill:#00357a;fill-opacity:1;"><g transform="translate(237.391899, 20.352071)"><path style="stroke:none" d="M 9.015625 -2.859375 L 3.40625 -2.859375 L 2.375 0 L 0.609375 0 L 5.25 -12.78125 L 7.1875 -12.78125 L 11.8125 0 L 10.046875 0 Z M 8.53125 -4.21875 L 6.21875 -10.71875 L 3.890625 -4.21875 Z M 8.015625 -15.640625 L 4.09375 -13.53125 L 4.09375 -14.78125 L 8.015625 -17.09375 Z M 8.015625 -15.640625 "/></g></g><g style="fill:#00357a;fill-opacity:1;"><g transform="translate(253.653092, 20.352071)"><path style="stroke:none" d="M 10.015625 -9.09375 C 10.015625 -8.019531 9.644531 -7.128906 8.90625 -6.421875 C 8.175781 -5.710938 7.0625 -5.359375 5.5625 -5.359375 L 3.09375 -5.359375 L 3.09375 0 L 1.421875 0 L 1.421875 -12.84375 L 5.5625 -12.84375 C 7.019531 -12.84375 8.125 -12.492188 8.875 -11.796875 C 9.632812 -11.097656 10.015625 -10.195312 10.015625 -9.09375 Z M 5.5625 -6.75 C 6.5 -6.75 7.1875 -6.953125 7.625 -7.359375 C 8.070312 -7.765625 8.296875 -8.34375 8.296875 -9.09375 C 8.296875 -10.675781 7.382812 -11.46875 5.5625 -11.46875 L 3.09375 -11.46875 L 3.09375 -6.75 Z M 5.5625 -6.75 "/></g></g><g style="fill:#00357a;fill-opacity:1;"><g transform="translate(268.16289, 20.352071)"><path style="stroke:none" d="M 3.09375 -12.84375 L 3.09375 0 L 1.421875 0 L 1.421875 -12.84375 Z M 3.09375 -12.84375 "/></g></g><g style="fill:#00357a;fill-opacity:1;"><g transform="translate(276.533516, 20.352071)"><path style="stroke:none" d="M 5.421875 -12.84375 C 6.816406 -12.84375 8.023438 -12.582031 9.046875 -12.0625 C 10.078125 -11.539062 10.867188 -10.796875 11.421875 -9.828125 C 11.972656 -8.859375 12.25 -7.710938 12.25 -6.390625 C 12.25 -5.078125 11.972656 -3.9375 11.421875 -2.96875 C 10.867188 -2.007812 10.078125 -1.273438 9.046875 -0.765625 C 8.023438 -0.253906 6.816406 0 5.421875 0 L 1.421875 0 L 1.421875 -12.84375 Z M 5.421875 -1.375 C 7.078125 -1.375 8.34375 -1.8125 9.21875 -2.6875 C 10.09375 -3.570312 10.53125 -4.804688 10.53125 -6.390625 C 10.53125 -7.992188 10.085938 -9.242188 9.203125 -10.140625 C 8.328125 -11.035156 7.066406 -11.484375 5.421875 -11.484375 L 3.09375 -11.484375 L 3.09375 -1.375 Z M 5.421875 -1.375 "/></g></g><g style="fill:#00357a;fill-opacity:1;"><g transform="translate(293.403099, 20.352071)"><path style="stroke:none" d="M 7.25 0.125 C 6.050781 0.125 4.957031 -0.148438 3.96875 -0.703125 C 2.988281 -1.265625 2.210938 -2.046875 1.640625 -3.046875 C 1.078125 -4.046875 0.796875 -5.175781 0.796875 -6.4375 C 0.796875 -7.6875 1.078125 -8.8125 1.640625 -9.8125 C 2.210938 -10.820312 2.988281 -11.601562 3.96875 -12.15625 C 4.957031 -12.71875 6.050781 -13 7.25 -13 C 8.445312 -13 9.535156 -12.71875 10.515625 -12.15625 C 11.503906 -11.601562 12.28125 -10.828125 12.84375 -9.828125 C 13.414062 -8.828125 13.703125 -7.695312 13.703125 -6.4375 C 13.703125 -5.164062 13.414062 -4.03125 12.84375 -3.03125 C 12.28125 -2.039062 11.503906 -1.265625 10.515625 -0.703125 C 9.535156 -0.148438 8.445312 0.125 7.25 0.125 Z M 7.25 -1.328125 C 8.144531 -1.328125 8.953125 -1.535156 9.671875 -1.953125 C 10.390625 -2.367188 10.953125 -2.960938 11.359375 -3.734375 C 11.773438 -4.515625 11.984375 -5.414062 11.984375 -6.4375 C 11.984375 -7.46875 11.773438 -8.363281 11.359375 -9.125 C 10.953125 -9.894531 10.390625 -10.488281 9.671875 -10.90625 C 8.960938 -11.332031 8.15625 -11.546875 7.25 -11.546875 C 6.332031 -11.546875 5.519531 -11.332031 4.8125 -10.90625 C 4.101562 -10.488281 3.539062 -9.894531 3.125 -9.125 C 2.707031 -8.363281 2.5 -7.46875 2.5 -6.4375 C 2.5 -5.414062 2.707031 -4.515625 3.125 -3.734375 C 3.539062 -2.960938 4.109375 -2.367188 4.828125 -1.953125 C 5.546875 -1.535156 6.351562 -1.328125 7.25 -1.328125 Z M 7.25 -1.328125 "/></g></g><g style="fill:#00357a;fill-opacity:1;"><g transform="translate(311.729132, 20.352071)"><path style="stroke:none" d="M 5.5 0.125 C 4.644531 0.125 3.882812 -0.0234375 3.21875 -0.328125 C 2.550781 -0.628906 2.023438 -1.046875 1.640625 -1.578125 C 1.253906 -2.109375 1.054688 -2.722656 1.046875 -3.421875 L 2.84375 -3.421875 C 2.90625 -2.828125 3.148438 -2.320312 3.578125 -1.90625 C 4.015625 -1.5 4.65625 -1.296875 5.5 -1.296875 C 6.289062 -1.296875 6.914062 -1.492188 7.375 -1.890625 C 7.84375 -2.285156 8.078125 -2.796875 8.078125 -3.421875 C 8.078125 -3.921875 7.941406 -4.320312 7.671875 -4.625 C 7.398438 -4.9375 7.0625 -5.171875 6.65625 -5.328125 C 6.25 -5.484375 5.703125 -5.65625 5.015625 -5.84375 C 4.171875 -6.0625 3.492188 -6.28125 2.984375 -6.5 C 2.472656 -6.726562 2.035156 -7.078125 1.671875 -7.546875 C 1.304688 -8.023438 1.125 -8.660156 1.125 -9.453125 C 1.125 -10.160156 1.300781 -10.78125 1.65625 -11.3125 C 2.007812 -11.851562 2.507812 -12.269531 3.15625 -12.5625 C 3.800781 -12.863281 4.546875 -13.015625 5.390625 -13.015625 C 6.585938 -13.015625 7.570312 -12.710938 8.34375 -12.109375 C 9.113281 -11.503906 9.546875 -10.707031 9.640625 -9.71875 L 7.796875 -9.71875 C 7.734375 -10.207031 7.472656 -10.640625 7.015625 -11.015625 C 6.566406 -11.390625 5.96875 -11.578125 5.21875 -11.578125 C 4.519531 -11.578125 3.945312 -11.394531 3.5 -11.03125 C 3.0625 -10.664062 2.84375 -10.160156 2.84375 -9.515625 C 2.84375 -9.046875 2.972656 -8.660156 3.234375 -8.359375 C 3.492188 -8.066406 3.816406 -7.84375 4.203125 -7.6875 C 4.597656 -7.539062 5.144531 -7.367188 5.84375 -7.171875 C 6.6875 -6.941406 7.367188 -6.710938 7.890625 -6.484375 C 8.410156 -6.253906 8.851562 -5.898438 9.21875 -5.421875 C 9.582031 -4.953125 9.765625 -4.3125 9.765625 -3.5 C 9.765625 -2.875 9.597656 -2.285156 9.265625 -1.734375 C 8.941406 -1.179688 8.453125 -0.734375 7.796875 -0.390625 C 7.148438 -0.046875 6.382812 0.125 5.5 0.125 Z M 5.5 0.125 "/></g></g><g style="fill:#00357a;fill-opacity:1;"><g transform="translate(326.386427, 20.352071)"><path style="stroke:none" d=""/></g></g><g style="fill:#00357a;fill-opacity:1;"><g transform="translate(335.144222, 20.352071)"><path style="stroke:none" d="M 3.09375 -11.484375 L 3.09375 -7.1875 L 7.78125 -7.1875 L 7.78125 -5.8125 L 3.09375 -5.8125 L 3.09375 -1.375 L 8.328125 -1.375 L 8.328125 0 L 1.421875 0 L 1.421875 -12.875 L 8.328125 -12.875 L 8.328125 -11.484375 Z M 3.09375 -11.484375 "/></g></g><g style="fill:#00357a;fill-opacity:1;"><g transform="translate(348.43724, 20.352071)"><path style="stroke:none" d=""/></g></g><g style="fill:#00357a;fill-opacity:1;"><g transform="translate(357.195035, 20.352071)"><path style="stroke:none" d="M 5.421875 -12.84375 C 6.816406 -12.84375 8.023438 -12.582031 9.046875 -12.0625 C 10.078125 -11.539062 10.867188 -10.796875 11.421875 -9.828125 C 11.972656 -8.859375 12.25 -7.710938 12.25 -6.390625 C 12.25 -5.078125 11.972656 -3.9375 11.421875 -2.96875 C 10.867188 -2.007812 10.078125 -1.273438 9.046875 -0.765625 C 8.023438 -0.253906 6.816406 0 5.421875 0 L 1.421875 0 L 1.421875 -12.84375 Z M 5.421875 -1.375 C 7.078125 -1.375 8.34375 -1.8125 9.21875 -2.6875 C 10.09375 -3.570312 10.53125 -4.804688 10.53125 -6.390625 C 10.53125 -7.992188 10.085938 -9.242188 9.203125 -10.140625 C 8.328125 -11.035156 7.066406 -11.484375 5.421875 -11.484375 L 3.09375 -11.484375 L 3.09375 -1.375 Z M 5.421875 -1.375 "/></g></g><g style="fill:#00357a;fill-opacity:1;"><g transform="translate(374.064617, 20.352071)"><path style="stroke:none" d="M 3.09375 -11.484375 L 3.09375 -7.1875 L 7.78125 -7.1875 L 7.78125 -5.8125 L 3.09375 -5.8125 L 3.09375 -1.375 L 8.328125 -1.375 L 8.328125 0 L 1.421875 0 L 1.421875 -12.875 L 8.328125 -12.875 L 8.328125 -11.484375 Z M 3.09375 -11.484375 "/></g></g><g style="fill:#00357a;fill-opacity:1;"><g transform="translate(387.357636, 20.352071)"><path style="stroke:none" d="M 5.5 0.125 C 4.644531 0.125 3.882812 -0.0234375 3.21875 -0.328125 C 2.550781 -0.628906 2.023438 -1.046875 1.640625 -1.578125 C 1.253906 -2.109375 1.054688 -2.722656 1.046875 -3.421875 L 2.84375 -3.421875 C 2.90625 -2.828125 3.148438 -2.320312 3.578125 -1.90625 C 4.015625 -1.5 4.65625 -1.296875 5.5 -1.296875 C 6.289062 -1.296875 6.914062 -1.492188 7.375 -1.890625 C 7.84375 -2.285156 8.078125 -2.796875 8.078125 -3.421875 C 8.078125 -3.921875 7.941406 -4.320312 7.671875 -4.625 C 7.398438 -4.9375 7.0625 -5.171875 6.65625 -5.328125 C 6.25 -5.484375 5.703125 -5.65625 5.015625 -5.84375 C 4.171875 -6.0625 3.492188 -6.28125 2.984375 -6.5 C 2.472656 -6.726562 2.035156 -7.078125 1.671875 -7.546875 C 1.304688 -8.023438 1.125 -8.660156 1.125 -9.453125 C 1.125 -10.160156 1.300781 -10.78125 1.65625 -11.3125 C 2.007812 -11.851562 2.507812 -12.269531 3.15625 -12.5625 C 3.800781 -12.863281 4.546875 -13.015625 5.390625 -13.015625 C 6.585938 -13.015625 7.570312 -12.710938 8.34375 -12.109375 C 9.113281 -11.503906 9.546875 -10.707031 9.640625 -9.71875 L 7.796875 -9.71875 C 7.734375 -10.207031 7.472656 -10.640625 7.015625 -11.015625 C 6.566406 -11.390625 5.96875 -11.578125 5.21875 -11.578125 C 4.519531 -11.578125 3.945312 -11.394531 3.5 -11.03125 C 3.0625 -10.664062 2.84375 -10.160156 2.84375 -9.515625 C 2.84375 -9.046875 2.972656 -8.660156 3.234375 -8.359375 C 3.492188 -8.066406 3.816406 -7.84375 4.203125 -7.6875 C 4.597656 -7.539062 5.144531 -7.367188 5.84375 -7.171875 C 6.6875 -6.941406 7.367188 -6.710938 7.890625 -6.484375 C 8.410156 -6.253906 8.851562 -5.898438 9.21875 -5.421875 C 9.582031 -4.953125 9.765625 -4.3125 9.765625 -3.5 C 9.765625 -2.875 9.597656 -2.285156 9.265625 -1.734375 C 8.941406 -1.179688 8.453125 -0.734375 7.796875 -0.390625 C 7.148438 -0.046875 6.382812 0.125 5.5 0.125 Z M 5.5 0.125 "/></g></g><g style="fill:#00357a;fill-opacity:1;"><g transform="translate(402.014931, 20.352071)"><path style="stroke:none" d="M 0.796875 -6.4375 C 0.796875 -7.6875 1.078125 -8.8125 1.640625 -9.8125 C 2.203125 -10.820312 2.972656 -11.609375 3.953125 -12.171875 C 4.929688 -12.734375 6.015625 -13.015625 7.203125 -13.015625 C 8.609375 -13.015625 9.832031 -12.675781 10.875 -12 C 11.914062 -11.320312 12.679688 -10.363281 13.171875 -9.125 L 11.15625 -9.125 C 10.800781 -9.894531 10.285156 -10.488281 9.609375 -10.90625 C 8.941406 -11.332031 8.140625 -11.546875 7.203125 -11.546875 C 6.304688 -11.546875 5.5 -11.332031 4.78125 -10.90625 C 4.070312 -10.488281 3.515625 -9.894531 3.109375 -9.125 C 2.703125 -8.363281 2.5 -7.46875 2.5 -6.4375 C 2.5 -5.414062 2.703125 -4.519531 3.109375 -3.75 C 3.515625 -2.976562 4.070312 -2.382812 4.78125 -1.96875 C 5.5 -1.550781 6.304688 -1.34375 7.203125 -1.34375 C 8.140625 -1.34375 8.941406 -1.546875 9.609375 -1.953125 C 10.285156 -2.367188 10.800781 -2.96875 11.15625 -3.75 L 13.171875 -3.75 C 12.679688 -2.519531 11.914062 -1.566406 10.875 -0.890625 C 9.832031 -0.222656 8.609375 0.109375 7.203125 0.109375 C 6.015625 0.109375 4.929688 -0.164062 3.953125 -0.71875 C 2.972656 -1.28125 2.203125 -2.054688 1.640625 -3.046875 C 1.078125 -4.046875 0.796875 -5.175781 0.796875 -6.4375 Z M 0.796875 -6.4375 "/></g></g><g style="fill:#00357a;fill-opacity:1;"><g transform="translate(420.082819, 20.352071)"><path style="stroke:none" d="M 7.25 0.125 C 6.050781 0.125 4.957031 -0.148438 3.96875 -0.703125 C 2.988281 -1.265625 2.210938 -2.046875 1.640625 -3.046875 C 1.078125 -4.046875 0.796875 -5.175781 0.796875 -6.4375 C 0.796875 -7.6875 1.078125 -8.8125 1.640625 -9.8125 C 2.210938 -10.820312 2.988281 -11.601562 3.96875 -12.15625 C 4.957031 -12.71875 6.050781 -13 7.25 -13 C 8.445312 -13 9.535156 -12.71875 10.515625 -12.15625 C 11.503906 -11.601562 12.28125 -10.828125 12.84375 -9.828125 C 13.414062 -8.828125 13.703125 -7.695312 13.703125 -6.4375 C 13.703125 -5.164062 13.414062 -4.03125 12.84375 -3.03125 C 12.28125 -2.039062 11.503906 -1.265625 10.515625 -0.703125 C 9.535156 -0.148438 8.445312 0.125 7.25 0.125 Z M 7.25 -1.328125 C 8.144531 -1.328125 8.953125 -1.535156 9.671875 -1.953125 C 10.390625 -2.367188 10.953125 -2.960938 11.359375 -3.734375 C 11.773438 -4.515625 11.984375 -5.414062 11.984375 -6.4375 C 11.984375 -7.46875 11.773438 -8.363281 11.359375 -9.125 C 10.953125 -9.894531 10.390625 -10.488281 9.671875 -10.90625 C 8.960938 -11.332031 8.15625 -11.546875 7.25 -11.546875 C 6.332031 -11.546875 5.519531 -11.332031 4.8125 -10.90625 C 4.101562 -10.488281 3.539062 -9.894531 3.125 -9.125 C 2.707031 -8.363281 2.5 -7.46875 2.5 -6.4375 C 2.5 -5.414062 2.707031 -4.515625 3.125 -3.734375 C 3.539062 -2.960938 4.109375 -2.367188 4.828125 -1.953125 C 5.546875 -1.535156 6.351562 -1.328125 7.25 -1.328125 Z M 7.25 -1.328125 "/></g></g><g style="fill:#00357a;fill-opacity:1;"><g transform="translate(438.408851, 20.352071)"><path style="stroke:none" d="M 14.453125 -12.765625 L 14.453125 0 L 12.78125 0 L 12.78125 -9.515625 L 8.53125 0 L 7.359375 0 L 3.09375 -9.53125 L 3.09375 0 L 1.421875 0 L 1.421875 -12.765625 L 3.21875 -12.765625 L 7.953125 -2.21875 L 12.671875 -12.765625 Z M 14.453125 -12.765625 "/></g></g><g style="fill:#00357a;fill-opacity:1;"><g transform="translate(458.117586, 20.352071)"><path style="stroke:none" d="M 10.015625 -9.09375 C 10.015625 -8.019531 9.644531 -7.128906 8.90625 -6.421875 C 8.175781 -5.710938 7.0625 -5.359375 5.5625 -5.359375 L 3.09375 -5.359375 L 3.09375 0 L 1.421875 0 L 1.421875 -12.84375 L 5.5625 -12.84375 C 7.019531 -12.84375 8.125 -12.492188 8.875 -11.796875 C 9.632812 -11.097656 10.015625 -10.195312 10.015625 -9.09375 Z M 5.5625 -6.75 C 6.5 -6.75 7.1875 -6.953125 7.625 -7.359375 C 8.070312 -7.765625 8.296875 -8.34375 8.296875 -9.09375 C 8.296875 -10.675781 7.382812 -11.46875 5.5625 -11.46875 L 3.09375 -11.46875 L 3.09375 -6.75 Z M 5.5625 -6.75 "/></g></g><g style="fill:#00357a;fill-opacity:1;"><g transform="translate(472.627359, 20.352071)"><path style="stroke:none" d="M 3.09375 -1.359375 L 7.59375 -1.359375 L 7.59375 0 L 1.421875 0 L 1.421875 -12.84375 L 3.09375 -12.84375 Z M 3.09375 -1.359375 "/></g></g><g style="fill:#00357a;fill-opacity:1;"><g transform="translate(484.427102, 20.352071)"><path style="stroke:none" d="M 3.09375 -12.84375 L 3.09375 0 L 1.421875 0 L 1.421875 -12.84375 Z M 3.09375 -12.84375 "/></g></g><g style="fill:#00357a;fill-opacity:1;"><g transform="translate(492.797753, 20.352071)"><path style="stroke:none" d="M 0.796875 -6.4375 C 0.796875 -7.6875 1.078125 -8.8125 1.640625 -9.8125 C 2.203125 -10.820312 2.972656 -11.609375 3.953125 -12.171875 C 4.929688 -12.734375 6.015625 -13.015625 7.203125 -13.015625 C 8.609375 -13.015625 9.832031 -12.675781 10.875 -12 C 11.914062 -11.320312 12.679688 -10.363281 13.171875 -9.125 L 11.15625 -9.125 C 10.800781 -9.894531 10.285156 -10.488281 9.609375 -10.90625 C 8.941406 -11.332031 8.140625 -11.546875 7.203125 -11.546875 C 6.304688 -11.546875 5.5 -11.332031 4.78125 -10.90625 C 4.070312 -10.488281 3.515625 -9.894531 3.109375 -9.125 C 2.703125 -8.363281 2.5 -7.46875 2.5 -6.4375 C 2.5 -5.414062 2.703125 -4.519531 3.109375 -3.75 C 3.515625 -2.976562 4.070312 -2.382812 4.78125 -1.96875 C 5.5 -1.550781 6.304688 -1.34375 7.203125 -1.34375 C 8.140625 -1.34375 8.941406 -1.546875 9.609375 -1.953125 C 10.285156 -2.367188 10.800781 -2.96875 11.15625 -3.75 L 13.171875 -3.75 C 12.679688 -2.519531 11.914062 -1.566406 10.875 -0.890625 C 9.832031 -0.222656 8.609375 0.109375 7.203125 0.109375 C 6.015625 0.109375 4.929688 -0.164062 3.953125 -0.71875 C 2.972656 -1.28125 2.203125 -2.054688 1.640625 -3.046875 C 1.078125 -4.046875 0.796875 -5.175781 0.796875 -6.4375 Z M 0.796875 -6.4375 "/></g></g><g style="fill:#00357a;fill-opacity:1;"><g transform="translate(510.865641, 20.352071)"><path style="stroke:none" d="M 9.015625 -2.859375 L 3.40625 -2.859375 L 2.375 0 L 0.609375 0 L 5.25 -12.78125 L 7.1875 -12.78125 L 11.8125 0 L 10.046875 0 Z M 8.53125 -4.21875 L 6.21875 -10.71875 L 3.890625 -4.21875 Z M 8.53125 -4.21875 "/></g></g><g style="fill:#00357a;fill-opacity:1;"><g transform="translate(527.126859, 20.352071)"><path style="stroke:none" d="M 5.421875 -12.84375 C 6.816406 -12.84375 8.023438 -12.582031 9.046875 -12.0625 C 10.078125 -11.539062 10.867188 -10.796875 11.421875 -9.828125 C 11.972656 -8.859375 12.25 -7.710938 12.25 -6.390625 C 12.25 -5.078125 11.972656 -3.9375 11.421875 -2.96875 C 10.867188 -2.007812 10.078125 -1.273438 9.046875 -0.765625 C 8.023438 -0.253906 6.816406 0 5.421875 0 L 1.421875 0 L 1.421875 -12.84375 Z M 5.421875 -1.375 C 7.078125 -1.375 8.34375 -1.8125 9.21875 -2.6875 C 10.09375 -3.570312 10.53125 -4.804688 10.53125 -6.390625 C 10.53125 -7.992188 10.085938 -9.242188 9.203125 -10.140625 C 8.328125 -11.035156 7.066406 -11.484375 5.421875 -11.484375 L 3.09375 -11.484375 L 3.09375 -1.375 Z M 5.421875 -1.375 "/></g></g><g style="fill:#00357a;fill-opacity:1;"><g transform="translate(543.996441, 20.352071)"><path style="stroke:none" d="M 7.25 0.125 C 6.050781 0.125 4.957031 -0.148438 3.96875 -0.703125 C 2.988281 -1.265625 2.210938 -2.046875 1.640625 -3.046875 C 1.078125 -4.046875 0.796875 -5.175781 0.796875 -6.4375 C 0.796875 -7.6875 1.078125 -8.8125 1.640625 -9.8125 C 2.210938 -10.820312 2.988281 -11.601562 3.96875 -12.15625 C 4.957031 -12.71875 6.050781 -13 7.25 -13 C 8.445312 -13 9.535156 -12.71875 10.515625 -12.15625 C 11.503906 -11.601562 12.28125 -10.828125 12.84375 -9.828125 C 13.414062 -8.828125 13.703125 -7.695312 13.703125 -6.4375 C 13.703125 -5.164062 13.414062 -4.03125 12.84375 -3.03125 C 12.28125 -2.039062 11.503906 -1.265625 10.515625 -0.703125 C 9.535156 -0.148438 8.445312 0.125 7.25 0.125 Z M 7.25 -1.328125 C 8.144531 -1.328125 8.953125 -1.535156 9.671875 -1.953125 C 10.390625 -2.367188 10.953125 -2.960938 11.359375 -3.734375 C 11.773438 -4.515625 11.984375 -5.414062 11.984375 -6.4375 C 11.984375 -7.46875 11.773438 -8.363281 11.359375 -9.125 C 10.953125 -9.894531 10.390625 -10.488281 9.671875 -10.90625 C 8.960938 -11.332031 8.15625 -11.546875 7.25 -11.546875 C 6.332031 -11.546875 5.519531 -11.332031 4.8125 -10.90625 C 4.101562 -10.488281 3.539062 -9.894531 3.125 -9.125 C 2.707031 -8.363281 2.5 -7.46875 2.5 -6.4375 C 2.5 -5.414062 2.707031 -4.515625 3.125 -3.734375 C 3.539062 -2.960938 4.109375 -2.367188 4.828125 -1.953125 C 5.546875 -1.535156 6.351562 -1.328125 7.25 -1.328125 Z M 7.25 -1.328125 "/></g></g><g style="fill:#00357a;fill-opacity:1;"><g transform="translate(562.322474, 20.352071)"><path style="stroke:none" d="M 5.5 0.125 C 4.644531 0.125 3.882812 -0.0234375 3.21875 -0.328125 C 2.550781 -0.628906 2.023438 -1.046875 1.640625 -1.578125 C 1.253906 -2.109375 1.054688 -2.722656 1.046875 -3.421875 L 2.84375 -3.421875 C 2.90625 -2.828125 3.148438 -2.320312 3.578125 -1.90625 C 4.015625 -1.5 4.65625 -1.296875 5.5 -1.296875 C 6.289062 -1.296875 6.914062 -1.492188 7.375 -1.890625 C 7.84375 -2.285156 8.078125 -2.796875 8.078125 -3.421875 C 8.078125 -3.921875 7.941406 -4.320312 7.671875 -4.625 C 7.398438 -4.9375 7.0625 -5.171875 6.65625 -5.328125 C 6.25 -5.484375 5.703125 -5.65625 5.015625 -5.84375 C 4.171875 -6.0625 3.492188 -6.28125 2.984375 -6.5 C 2.472656 -6.726562 2.035156 -7.078125 1.671875 -7.546875 C 1.304688 -8.023438 1.125 -8.660156 1.125 -9.453125 C 1.125 -10.160156 1.300781 -10.78125 1.65625 -11.3125 C 2.007812 -11.851562 2.507812 -12.269531 3.15625 -12.5625 C 3.800781 -12.863281 4.546875 -13.015625 5.390625 -13.015625 C 6.585938 -13.015625 7.570312 -12.710938 8.34375 -12.109375 C 9.113281 -11.503906 9.546875 -10.707031 9.640625 -9.71875 L 7.796875 -9.71875 C 7.734375 -10.207031 7.472656 -10.640625 7.015625 -11.015625 C 6.566406 -11.390625 5.96875 -11.578125 5.21875 -11.578125 C 4.519531 -11.578125 3.945312 -11.394531 3.5 -11.03125 C 3.0625 -10.664062 2.84375 -10.160156 2.84375 -9.515625 C 2.84375 -9.046875 2.972656 -8.660156 3.234375 -8.359375 C 3.492188 -8.066406 3.816406 -7.84375 4.203125 -7.6875 C 4.597656 -7.539062 5.144531 -7.367188 5.84375 -7.171875 C 6.6875 -6.941406 7.367188 -6.710938 7.890625 -6.484375 C 8.410156 -6.253906 8.851562 -5.898438 9.21875 -5.421875 C 9.582031 -4.953125 9.765625 -4.3125 9.765625 -3.5 C 9.765625 -2.875 9.597656 -2.285156 9.265625 -1.734375 C 8.941406 -1.179688 8.453125 -0.734375 7.796875 -0.390625 C 7.148438 -0.046875 6.382812 0.125 5.5 0.125 Z M 5.5 0.125 "/></g></g></g></g></g></g></g></g></svg>